{"title":"Sunset Blvd.-720p MP4 AAC x264 HDTV 1950-CC","uid":7775001,"size":2899188681,"categoryP":"video","categoryS":"hd___movies","magnet":"?xt=urn:btih:ea2657052bcefee5776c57264fd20624f8c6cce9&amp;dn=Sunset+Blvd.-720p+MP4+AAC+x264+HDTV+1950-CC&amp;tr=udp%3A%2F%2Ftracker.openbittorrent.com%3A80&amp;tr=udp%3A%2F%2Fopen.demonii.com%3A1337&amp;tr=udp%3A%2F%2Ftracker.coppersurfer.tk%3A6969&amp;tr=udp%3A%2F%2Fexodus.desync.com%3A6969","seeders":0,"leechers":1,"uploader":"Caveman44","files":-1,"time":1351630835,"description":" &lt;a href=&quot;http://www.imdb.com/title/tt0043014/&quot; rel=&quot;nofollow&quot; target=&quot;_NEW&quot;&gt;http://www.imdb.com/title/tt0043014/&lt;/a&gt;\n\nSource: Sunset.Blvd.1950.720p.HDTV.x264-QuiNoLiNe Thanks!\n\nSubs: Brazilian, Dutch, English, Finnish, French, Portuguese, Slovenian and Spanish.\n\nSample and Screens included.\n\nGeneral\nComplete name                            : Sunset Blvd.-720p MP4 AAC x264 HDTV 1950-CC.mp4\nFormat                                   : MPEG-4\nFormat profile                           : Base Media\nCodec ID                                 : isom\nFile size                                : 2.67 GiB\nDuration                                 : 1h 50mn\nOverall bit rate mode                    : Variable\nOverall bit rate                         : 3 467 Kbps\nEncoded date                             : UTC 2012-10-17 16:01:59\n\nVideo\nID                                       : 1\nFormat                                   : AVC\nFormat/Info                              : Advanced Video Codec\nFormat profile                           : &lt;a class=&quot;__cf_email__&quot; href=&quot;/cdn-cgi/l/email-protection&quot; data-cfemail=&quot;0840616f6048443c2639&quot;&gt;[email&amp;#160;protected]&lt;/a&gt;&lt;script cf-hash='f9e31' type=&quot;text/javascript&quot;&gt;\n/* &lt;![CDATA[ */!function(){try{var t=&quot;currentScript&quot;in document?document.currentScript:function(){for(var t=document.getElementsByTagName(&quot;script&quot;),e=t.length;e--;)if(t[e].getAttribute(&quot;cf-hash&quot;))return t[e]}();if(t&amp;&amp;t.previousSibling){var e,r,n,i,c=t.previousSibling,a=c.getAttribute(&quot;data-cfemail&quot;);if(a){for(e=&quot;&quot;,r=parseInt(a.substr(0,2),16),n=2;a.length-n;n+=2)i=parseInt(a.substr(n,2),16)^r,e+=String.fromCharCode(i);e=document.createTextNode(e),c.parentNode.replaceChild(e,c)}}}catch(u){}}();/* ]]&gt; */&lt;/script&gt;\nFormat settings, CABAC                   : Yes\nFormat settings, ReFrames                : 5 frames\nCodec ID                                 : avc1\nCodec ID/Info                            : Advanced Video Coding\nDuration                                 : 1h 50mn\nBit rate                                 : 3 074 Kbps\nMaximum bit rate                         : 8 797 Kbps\nWidth                                    : 960 pixels\nHeight                                   : 720 pixels\nDisplay aspect ratio                     : 4:3\nFrame rate mode                          : Variable\nFrame rate                               : 23.976 fps\nMinimum frame rate                       : 19.048 fps\nMaximum frame rate                       : 24.390 fps\nColor space                              : YUV\nChroma subsampling                       : 4:2:0\nBit depth                                : 8 bits\nScan type                                : Progressive\nBits/(Pixel*Frame)                       : 0.185\nStream size                              : 2.37 GiB (89%)\nWriting library                          : x264 core 112\n\nAudio\nID                                       : 2\nFormat                                   : AAC\nFormat/Info                              : Advanced Audio Codec\nFormat profile                           : LC\nCodec ID                                 : 40\nDuration                                 : 1h 50mn\nBit rate mode                            : Variable\nBit rate                                 : 384 Kbps\nMaximum bit rate                         : 461 Kbps\nChannel(s)                               : 6 channels\nChannel positions                        : Front: L C R, Side: L R, LFE\nSampling rate                            : 48.0 KHz\nCompression mode                         : Lossy\nDelay relative to video                  : 83ms\nStream size                              : 303 MiB (11%)\n\nEnjoy..\n\nRequested by DreamExtractor.\n\nComing up: The Horse Whisperer, Silence of the Lambs, The International and more...","torrent":{"xt":"urn:btih:ea2657052bcefee5776c57264fd20624f8c6cce9","amp;dn":"Sunset+Blvd.-720p+MP4+AAC+x264+HDTV+1950-CC","amp;tr":["udp%3A%2F%2Ftracker.openbittorrent.com%3A80","udp%3A%2F%2Fopen.demonii.com%3A1337","udp%3A%2F%2Ftracker.coppersurfer.tk%3A6969","udp%3A%2F%2Fexodus.desync.com%3A6969"],"infoHash":"ea2657052bcefee5776c57264fd20624f8c6cce9","infoHashBuffer":{"type":"Buffer","data":[234,38,87,5,43,206,254,229,119,108,87,38,79,210,6,36,248,198,204,233]},"announce":[],"urlList":[]}}